<?xml version="1.0" encoding="UTF-8"?>
<svg width="400px" height="53px" viewBox="0 0 400 53" version="1.1" xmlns="http://www.w3.org/2000/svg" xmlns:xlink="http://www.w3.org/1999/xlink">
    <title>Footer logo</title>
    <g id="Page-1" stroke="none" stroke-width="1" fill="none" fill-rule="evenodd">
        <g id="Artboard" transform="translate(-377.000000, -406.000000)" fill="#386EF3">
            <g id="Footer-logo" transform="translate(377.000000, 406.000000)">
                <g id="Large-text" transform="translate(64.000000, 21.000000)">
                    <g id="The">
                        <polygon id="Fill-42" points="21 0 21 3.75074282 12.3771254 3.75074282 12.3771254 21 8.62287455 21 8.62287455 3.75074282 0 3.75074282 0 0"></polygon>
                        <polygon id="Fill-43" points="45 0 45 21 41.2508844 21 41.2508844 11.369676 27.7491156 11.369676 27.7491156 21 24 21 24 0 27.7491156 0 27.7491156 7.62056035 41.2508844 7.62056035 41.2508844 0"></polygon>
                        <path d="M51.7250785,5.66969297 L51.7250785,7.61984153 L65.2456604,7.61984153 L65.2456604,11.3686035 L51.7250785,11.3686035 L51.7250785,15.3283262 C51.7250785,16.3786728 52.5969582,17.2492572 53.6488676,17.2492572 L69,17.2492572 L69,21 L53.6488676,21 C50.5243842,21 48,18.4486629 48,15.3283262 L48,5.66969297 C48,2.54935622 50.5243842,0 53.6488676,0 L69,0 L69,3.74876197 L53.6488676,3.74876197 C52.5969582,3.74876197 51.7250785,4.61934632 51.7250785,5.66969297" id="Fill-44"></path>
                    </g>
                    <g id="Aperion" transform="translate(81.000000, 0.000000)">
                        <polygon id="Fill-4" points="20.5656541 20.6731452 16.5340551 20.6731452 14.6900451 16.9817742 10.2828271 8.1222043 5.87594987 16.9817742 4.03296241 20.6731452 2.48689958e-14 20.6731452 1.84298747 16.9817742 10.2828271 0 18.7230075 16.9817742"></polygon>
                        <path d="M35.8027669,7.29502688 C36.4647018,7.00008065 36.8972431,6.32037634 36.8972431,5.58196237 C36.8972431,4.90330645 36.5526416,4.42978495 36.3501754,4.22360215 C36.1197594,3.98736559 35.6868772,3.69137097 35.0545965,3.69137097 L25.9235088,3.69137097 L25.9235088,7.50120968 L35.0545965,7.50120968 C35.3129624,7.50120968 35.5726917,7.4425 35.8027669,7.32508065 L35.8027669,7.29502688 Z M38.8850927,1.6547043 C39.8636792,2.68806452 40.4697143,4.07612903 40.4697143,5.61201613 C40.4697143,7.85626344 39.1727719,9.80556452 37.300812,10.6914516 C36.8106667,10.9276882 36.2929123,11.0751613 35.7441404,11.1352688 L35.5726917,11.1352688 L35.5726917,11.1639247 L25.9235088,11.1639247 L25.9235088,20.6731452 L22.3220652,20.6731452 L22.3220652,0 L35.0252832,0 C36.5219649,0 37.877193,0.621344086 38.8557794,1.62604839 L38.8850927,1.6547043 Z" id="Fill-5"></path>
                        <path d="M46.9206817,5.58196237 L46.9206817,7.50120968 L59.8822657,7.50120968 L59.8822657,11.193629 L46.9206817,11.193629 L46.9206817,15.0911828 C46.9206817,16.1259409 47.7554286,16.9817742 48.7633283,16.9817742 L63.4823459,16.9817742 L63.4823459,20.6731452 L48.7633283,20.6731452 C45.7675789,20.6731452 43.3482105,18.1626075 43.3482105,15.0911828 L43.3482105,5.58196237 C43.3482105,2.51053763 45.7675789,0 48.7633283,0 L63.4823459,0 L63.4823459,3.69276882 L48.7633283,3.69276882 C47.7554286,3.69276882 46.9206817,4.54860215 46.9206817,5.58196237" id="Fill-6"></path>
                        <path d="M79.0657644,7.53126344 C79.3241303,7.53126344 79.5838596,7.47255376 79.8139348,7.35373656 C80.4772331,7.05879032 80.908411,6.37908602 80.908411,5.64067204 C80.908411,4.96201613 80.5638095,4.48989247 80.3613434,4.28231183 C80.1322907,4.04607527 79.6994085,3.75147849 79.0657644,3.75147849 L69.9346767,3.75147849 L69.9346767,7.55991935 L79.0657644,7.53126344 Z M82.6368722,17.0404839 L84.4808822,20.7315054 L80.4479198,20.7315054 L78.6039098,17.0404839 L76.6743459,13.1719355 L76.5881103,12.9958065 C75.9541253,11.9323925 74.8303358,11.2226344 73.5350977,11.2226344 L69.9346767,11.2226344 L69.9346767,20.7315054 L66.3332331,20.7315054 L66.3332331,0.0601075269 L79.0657644,0.0601075269 C80.5638095,0.0601075269 81.9176742,0.680053763 82.8962607,1.68475806 C83.8762105,2.68806452 84.4808822,4.07612903 84.4808822,5.61201613 C84.4808822,7.85626344 83.1853033,9.80556452 81.3133434,10.6914516 C80.8218346,10.9276882 80.3040802,11.0751613 79.7566717,11.1352688 L82.6368722,17.0404839 Z" id="Fill-7"></path>
                        <polygon id="Fill-8" points="87.3886917 20.6727957 90.9887719 20.6727957 90.9887719 2.48689958e-14 87.3886917 2.48689958e-14"></polygon>
                        <path d="M109.741093,10.3363978 C109.741093,6.67543011 106.83192,3.69276882 103.259789,3.69276882 C99.6886817,3.69276882 96.7795088,6.67543011 96.7795088,10.3363978 C96.7795088,13.9991129 99.6886817,16.9817742 103.259789,16.9817742 C106.83192,16.9817742 109.741093,13.9991129 109.741093,10.3363978 M113.341514,10.3363978 C113.341514,16.0371774 108.819769,20.6731452 103.259789,20.6731452 C97.7008321,20.6731452 93.1777243,16.0371774 93.1777243,10.3363978 C93.1777243,4.63736559 97.7008321,0 103.259789,0 C108.819769,0 113.341514,4.63736559 113.341514,10.3363978" id="Fill-9"></path>
                        <polygon id="Fill-10" points="135.692551 0.0300537634 135.692551 20.7028495 132.09213 17.8676613 119.129183 7.62002688 119.129183 20.7028495 115.529103 20.7028495 115.529103 0.0887634409 119.129183 2.92395161 132.09213 13.1719355 132.09213 2.84217094e-14"></polygon>
                    </g>
                    <g id="Group" transform="translate(229.000000, 0.000000)">
                        <path d="M3.58966036,10.3363978 C3.58966036,13.9991129 6.49013856,16.9817742 10.0515927,16.9817742 L16.5125056,16.9817742 L16.5125056,13.0244624 L10.0515927,13.0244624 L10.0515927,9.3330914 L20.1035253,9.3330914 L20.1035253,20.6731452 L10.0515927,20.6731452 C4.50823008,20.6731452 2.84217094e-14,16.0371774 2.84217094e-14,10.3363978 C2.84217094e-14,4.63736559 4.50823008,-2.84217094e-14 10.0515927,-2.84217094e-14 L20.1035253,-2.84217094e-14 L20.1035253,3.69276882 L10.0515927,3.69276882 C6.49013856,3.69276882 3.58966036,6.67543011 3.58966036,10.3363978" id="Fill-11"></path>
                        <path d="M35.6373107,7.53126344 C35.8962638,7.53126344 36.1552169,7.47255376 36.3849442,7.35513441 C37.0459202,7.05879032 37.4761493,6.38048387 37.4761493,5.64067204 C37.4761493,4.96201613 37.1308786,4.48989247 36.9303769,4.28370968 C36.7006495,4.04607527 36.2694009,3.75147849 35.6373107,3.75147849 L26.5348727,3.75147849 L26.5348727,7.5613172 L35.6373107,7.53126344 Z M39.1991048,17.0404839 L41.0376035,20.7329032 L37.0166946,20.7329032 L35.1781958,17.0404839 L33.2547387,13.1719355 L33.168421,12.9958065 C32.5363308,11.9309946 31.4162399,11.2226344 30.1245331,11.2226344 L26.5348727,11.2226344 L26.5348727,20.7329032 L22.9441928,20.7329032 L22.9441928,0.0601075269 L35.6373107,0.0601075269 C37.1308786,0.0601075269 38.4810367,0.680053763 39.4580578,1.68475806 C40.4337195,2.68806452 41.0376035,4.07612903 41.0376035,5.61201613 C41.0376035,7.85626344 39.7458967,9.80556452 37.8781723,10.6914516 C37.3898317,10.9276882 36.8732849,11.0751613 36.3278522,11.1352688 L39.1991048,17.0404839 Z" id="Fill-12"></path>
                        <path d="M59.7603857,10.3363978 C59.7603857,6.67543011 56.8599075,3.69276882 53.2994728,3.69276882 C49.7380186,3.69276882 46.8372006,6.67543011 46.8372006,10.3363978 C46.8372006,13.9991129 49.7380186,16.9817742 53.2994728,16.9817742 C56.8599075,16.9817742 59.7603857,13.9991129 59.7603857,10.3363978 M63.3497062,10.3363978 C63.3497062,16.0371774 58.841816,20.6731452 53.2994728,20.6731452 C47.7571296,20.6731452 43.2478801,16.0371774 43.2478801,10.3363978 C43.2478801,4.63736559 47.7571296,-2.84217094e-14 53.2994728,-2.84217094e-14 C58.841816,-2.84217094e-14 63.3497062,4.63736559 63.3497062,10.3363978" id="Fill-13"></path>
                        <path d="M85.6353019,-2.84217094e-14 L85.6353019,10.3363978 C85.6353019,16.0371774 81.1260523,20.6731452 75.5837092,20.6731452 C70.0417058,20.6731452 65.5321164,16.0371774 65.5321164,10.3363978 L65.5321164,-2.84217094e-14 L69.1217768,-2.84217094e-14 L69.1217768,10.3363978 C69.1217768,13.9991129 72.022255,16.9817742 75.5837092,16.9817742 C79.1455032,16.9817742 82.044622,13.9991129 82.044622,10.3363978 L82.044622,-2.84217094e-14 L85.6353019,-2.84217094e-14 Z" id="Fill-14"></path>
                        <path d="M101.974153,7.29502688 C102.635129,7.00008065 103.066377,6.32037634 103.066377,5.58196237 C103.066377,4.90330645 102.721446,4.4311828 102.519585,4.22360215 C102.291217,3.98736559 101.859969,3.69276882 101.227878,3.69276882 L92.1240811,3.69276882 L92.1240811,7.50260753 L101.227878,7.50260753 C101.486832,7.50260753 101.744425,7.4425 101.974153,7.32508065 L101.974153,7.29502688 Z M105.047266,1.6547043 C106.024287,2.68806452 106.626812,4.07612903 106.626812,5.61201613 C106.626812,7.85626344 105.335105,9.80556452 103.46874,10.6914516 C102.98006,10.9276882 102.462493,11.0751613 101.917061,11.1352688 L101.744425,11.1352688 L101.744425,11.1639247 L92.1240811,11.1639247 L92.1240811,20.6731452 L88.5334013,20.6731452 L88.5334013,-2.84217094e-14 L101.198653,-2.84217094e-14 C102.69358,-2.84217094e-14 104.042379,0.621344086 105.018041,1.62465054 L105.047266,1.6547043 Z" id="Fill-15"></path>
                    </g>
                </g>
                <g id="Logo">
                    <path d="M25.8854315,52.9604392 C25.8854315,52.9604392 7.6976507,54.1876228 8.00382263,42.9722061 C8.32703115,31.1127217 22.148333,23.8330282 28.470613,21.1696474 C34.791676,18.5072538 41.8251121,17.2117151 50,6 C50,6 48.1481222,13.9111761 33.6555786,23.5601014 C25.3855292,29.0662641 12.7458368,40.6017405 17.2359528,47.7136309 C19.4312396,51.1896229 25.8854315,52.9604392 25.8854315,52.9604392" id="Fill-2"></path>
                    <path d="M50.8704029,0.0464000917 C49.4824818,1.31544799 47.9717149,2.43482812 46.4361426,3.51378351 C35.7268254,11.0371152 22.5268099,13.2159603 11.2859485,19.6487867 C10.3095607,20.207033 9.35278109,20.8020947 8.4234055,21.438303 C3.39499693,24.8833084 -1.03264852,30.7785821 0.212109984,37.6118059 C1.67019491,45.6183094 10.2986936,47.8130356 11.0074193,48 C8.26370599,46.6765712 6.77443713,44.1124881 6.52236704,42.0484204 C5.737099,35.5985098 8.80446367,29.8047792 13.6115136,25.87588 C17.6977895,22.5343427 22.728088,20.4373096 27.3881955,18.055619 C32.6788326,15.3522149 37.8253621,12.3896595 42.5695717,8.7831957 C44.9208872,6.99632621 47.219757,5.05906709 49.1576492,2.80418506 C49.476812,2.43290313 51.1888569,0.706189498 50.982854,0.078403006 C50.9580486,0.00236600658 50.9618285,-0.0363743634 50.8704029,0.0464000917" id="Fill-1"></path>
                    <path d="M46.4916376,21.161111 C50.204181,31.0913131 46.8924558,42.3637797 38.4383178,48.5740124 L38.3051855,48.6718683 L38.2939981,48.6758136 L37.8198564,49.0152778 C36.3663125,50.0211273 34.7824622,50.858923 33.1009444,51.5096887 C31.1582292,52.2616091 29.1322571,52.7432648 27.0729669,52.9442946 L27.0647448,52.9481218 L26.6679537,52.9801781 L26.3734298,53.0011921 C25.0270015,52.4510927 22.6985765,51.1799859 20.8955054,49.8835155 L20.5253022,49.8034718 C20.8026651,49.8665186 21.0818444,49.9232619 21.3625107,49.9740516 C21.8039229,50.0533736 22.2490559,50.1185147 22.6972223,50.1685112 C23.8024606,50.2918091 24.9261476,50.3230003 26.0585078,50.2557791 C26.9595712,49.5319999 27.795722,48.7352652 28.5589571,47.8742189 C24.8474872,46.6963043 21.5408387,44.611526 18.8933223,41.8411445 C19.2748613,41.0370823 19.7619284,40.2080653 20.3342474,39.3668153 C22.97257,42.33695 26.433585,44.4945935 30.3555456,45.5250894 C33.7938798,40.3051701 34.7254649,33.8611003 32.9242401,27.8878484 L31.2200588,28.546844 C32.1790549,27.8225545 33.1354051,27.1423371 34.0679302,26.5193227 C36.2486174,25.0625155 38.1476334,23.6401939 39.8006491,22.2737609 L43.4309981,20.8688136 L43.3739426,20.7405931 C43.2812778,20.5384853 43.1856354,20.3383897 43.0870843,20.1403497 C43.0157735,19.9965337 42.9427738,19.8540146 42.8682709,19.7125936 L42.8094543,19.6024197 C43.5366269,18.9061776 44.1982782,18.2306697 44.8001263,17.5793267 C45.4545074,18.7083222 46.0220789,19.9047371 46.4916376,21.161111 Z M31.5043334,48.6014265 L31.3571461,48.7897883 C31.2012042,48.9856073 31.0421243,49.1788455 30.8799692,49.3694354 C31.3018612,49.2370669 31.7214579,49.0903919 32.1368012,48.9297643 L32.5512865,48.7636425 C32.2014841,48.7178739 31.8524359,48.6637968 31.5043334,48.6014265 Z M44.3949981,23.4488136 L35.4648386,26.9048092 C37.4613492,33.347235 36.6424281,40.2890069 33.2315374,46.0649768 C34.5279148,46.2139689 35.8349841,46.231592 37.1381627,46.1195924 L37.2169981,46.0588136 L37.4132011,45.9080214 C37.4335305,45.8919745 37.4538236,45.8758935 37.4740804,45.8597783 L37.7720167,45.6177937 L37.7720167,45.6177937 L38.064946,45.370897 L38.1807937,45.269994 L38.2607949,45.2009245 L38.2607949,45.2009245 L38.3077937,45.157994 L38.3037096,45.1625838 L38.3737937,45.098994 L38.4525987,45.0293226 L38.4525987,45.0293226 L38.5557937,44.933994 L38.5117937,44.974994 L38.5576411,44.9341279 L38.5576411,44.9341279 L38.5867937,44.905994 L38.5999992,44.8947702 L38.6287937,44.866994 L38.7367937,44.765994 L38.7257937,44.776994 L38.7437937,44.759994 L38.7367937,44.765994 L38.8327937,44.675994 L38.8827937,44.627994 L38.8937937,44.617994 L38.9057937,44.605994 L38.9721932,44.5433433 L38.9721932,44.5433433 L39.0127937,44.502994 L39.0537937,44.461994 L39.1017937,44.414994 L39.1117937,44.404994 L39.2518853,44.2669324 L39.2518853,44.2669324 L39.2948073,44.2231258 L39.2948073,44.2231258 L39.3317937,44.184994 L39.2937937,44.222994 L39.3477937,44.167994 L39.3447937,44.171994 L39.3838024,44.132796 L39.3838024,44.132796 L39.4117937,44.102994 L39.4597937,44.052994 L39.514358,43.9975755 L39.514358,43.9975755 L39.5477937,43.960994 L39.7876798,43.7062195 C39.8777533,43.6083028 39.9667911,43.5095941 40.054788,43.4101114 L40.1207937,43.332994 L40.2090047,43.2337426 L40.2090047,43.2337426 L40.2977937,43.128994 L40.2137937,43.225994 L40.3017937,43.123994 L40.3610535,43.0557888 L40.3610535,43.0557888 L40.3807937,43.030994 L40.4612849,42.9361955 L40.4612849,42.9361955 L40.4867937,42.903994 L40.5605465,42.815913 L40.5605465,42.815913 L40.5657937,42.807994 L40.5997937,42.765994 L40.6694798,42.6817362 L40.6694798,42.6817362 L40.7126032,42.6275183 L40.7307937,42.602994 L40.7477937,42.581994 L40.7557937,42.571994 L40.8167937,42.494994 L40.8327937,42.474994 L40.8517937,42.449994 L40.8967937,42.391994 L40.8617937,42.437994 L40.897993,42.3925639 L40.897993,42.3925639 L41.0037937,42.253994 L40.9516653,42.3226112 L41.0657937,42.171994 L41.0817937,42.150994 L41.1512182,42.0592004 L41.1512182,42.0592004 L41.2197937,41.964994 L41.2087937,41.978994 L41.2697937,41.895994 L41.2835759,41.8787326 L41.2835759,41.8787326 L41.3797937,41.743994 L41.3864555,41.7359414 L41.3887937,41.730994 L41.4077937,41.704994 L41.4767667,41.6089112 L41.4767667,41.6089112 L41.4887937,41.589994 L41.5060142,41.5667099 L41.5060142,41.5667099 L41.5237937,41.539994 L41.5147937,41.551994 L41.5257937,41.535994 L41.5921554,41.4429767 L41.5921554,41.4429767 L41.6238068,41.3963791 L41.6238068,41.3963791 C41.7626004,41.1935151 41.8976505,40.9883597 42.0289225,40.7810302 L42.1008971,40.6669433 L42.1008971,40.6669433 L42.1717928,40.5525758 L42.2531295,40.419219 L42.2531295,40.419219 L42.3187937,40.308994 L42.3227937,40.300994 L42.3237937,40.300994 L42.3527937,40.250994 L42.3597937,40.239994 L42.3677937,40.224994 L42.4157937,40.143994 L42.4217937,40.133994 L42.4437937,40.094994 L42.4337937,40.113994 L42.5297937,39.945994 L42.5537937,39.902994 L42.5687937,39.876994 L42.5987937,39.823994 L42.6033111,39.8176819 L42.6487937,39.733994 L42.6747937,39.686994 L42.7062174,39.6316949 L42.7062174,39.6316949 L42.7167937,39.610994 L42.7617937,39.527994 L42.7617937,39.526994 L42.7627937,39.525994 L42.7883022,39.4800525 L42.7883022,39.4800525 L42.8030827,39.4519523 C43.0400317,39.0082658 43.2607227,38.5564344 43.4648566,38.0974756 L43.4787937,38.063994 L43.5017937,38.011994 L43.5217937,37.966994 L43.5394635,37.928181 L43.5394635,37.928181 L43.5437937,37.915994 L43.6067937,37.769994 L43.5557937,37.886994 L43.6849087,37.5849361 C43.7323714,37.4701028 43.7788136,37.3548563 43.8242307,37.2392119 L43.8397937,37.197994 L43.8467937,37.178994 L43.959691,36.8849534 C44.0037798,36.7664661 44.0468024,36.6475831 44.0887541,36.5283207 C44.177415,36.2762706 44.2612923,36.0225257 44.3403412,35.7672393 L44.4343736,35.4547251 L44.4343736,35.4547251 L44.5236817,35.1407392 C44.5601357,35.008737 44.5953132,34.8763629 44.629208,34.7436376 L44.6317937,34.730994 L44.6327937,34.727994 L44.6352562,34.7202528 L44.6487937,34.662994 L44.6668753,34.5938639 L44.6668753,34.5938639 L44.6807937,34.532994 L44.6887937,34.500994 L44.6987937,34.457994 L44.7034539,34.4437991 L44.7034539,34.4437991 C44.8547597,33.8130733 44.9772231,33.1748234 45.0702018,32.5312347 C45.1105458,32.2520775 45.1453666,31.9715096 45.1745715,31.6901141 L45.1747937,31.683994 L45.2255243,31.1256639 C45.2689417,30.5602142 45.2897059,29.9919262 45.2873949,29.4222377 C45.2866723,29.2229473 45.2830546,29.0238425 45.2766052,28.8246279 C45.2717883,28.6792499 45.2655929,28.534332 45.2578934,28.3893796 C45.2442813,28.1308473 45.2257988,27.8725495 45.2025048,27.6142751 C45.168681,27.2409298 45.1249213,26.8674694 45.0709807,26.4944617 C45.0509454,26.3546339 45.0292938,26.2148362 45.0062047,26.075123 C44.9053182,25.4659617 44.7772916,24.858391 44.6214177,24.2541918 C44.5865102,24.1178332 44.5498589,23.981425 44.5117786,23.8452091 C44.4929852,23.7789964 44.4741036,23.7127216 44.4548826,23.6464947 L44.3949981,23.4488136 Z M15.2597393,28.3494938 L15.2159031,28.3858266 C14.4147375,29.0493161 13.6340075,29.7534842 12.8897763,30.4986588 C12.8575595,30.3528818 12.8271588,30.2072715 12.7981418,30.0615188 C13.5186636,29.2419173 14.3268767,28.4633818 15.2192865,27.7348084 L15.185262,27.7625644 C15.207315,27.9583456 15.2321383,28.1540075 15.2597393,28.3494938 Z M31.6472608,19.494442 L31.3798995,19.5980918 C31.2863272,19.6345808 31.1928251,19.6709088 31.0993894,19.7071108 L30.5395413,19.9230888 L30.5395413,19.9230888 L30.2601569,20.0304659 C29.8373832,20.1930628 29.4080722,20.3579602 28.9777318,20.526616 C28.8691201,20.3978132 28.7588367,20.2686502 28.6470423,20.140957 L28.732215,20.0981937 C29.5558838,19.6777273 30.3557425,19.2610637 31.1333903,18.84723 C31.3078249,19.0587747 31.4793818,19.274979 31.6472608,19.494442 Z M41.8177219,13.5126768 L41.6288558,13.681063 C40.974995,14.2539983 40.3293787,14.7715307 39.691025,15.2425186 C39.6399587,15.1850122 39.5873497,15.1292431 39.534452,15.0737905 C39.3080902,14.8366561 39.0764956,14.6053233 38.8399006,14.3799426 C39.6428211,13.8686737 40.4203317,13.3550155 41.174983,12.8382522 C41.3936558,13.0582026 41.6078241,13.2831731 41.8177219,13.5126768 Z M18.0463178,9.95924826 L17.6279862,10.1154483 C17.2123966,10.2761919 16.8027188,10.4503104 16.3995232,10.637484 C16.7252818,10.6805479 17.0486751,10.7308662 17.3709073,10.7882588 C17.5888776,10.5068302 17.8145613,10.2302125 18.0463178,9.95924826 Z M23.8557937,8.78699403 L23.9137937,8.78399403 L23.8747038,8.78623161 C23.8222083,8.78893714 23.7696908,8.79185138 23.7171525,8.79497493 L23.8362476,8.78833486 L23.6314193,8.80041002 L23.6314193,8.80041002 L23.6007937,8.80199403 L23.4697937,8.81099403 L23.4897937,8.80899403 L23.6007937,8.80199403 L23.7171525,8.79497493 L23.5348596,8.80664796 L23.5348596,8.80664796 L23.4897937,8.80899403 L23.4667937,8.81099403 L23.4697937,8.81099403 L23.3524078,8.82000487 L23.3524078,8.82000487 L23.4263846,8.81461214 L23.2003333,8.83272531 L23.2003333,8.83272531 C22.1544027,9.63070648 21.1885938,10.5284608 20.3156112,11.5151751 C21.4825824,11.8862038 22.6094841,12.3466558 23.6884324,12.8896487 C22.4741473,13.3551874 21.2567803,13.8318097 20.043308,14.3287643 C19.5449898,14.1552079 19.0374346,13.9998698 18.5219123,13.8639479 L18.3248127,14.1660445 C18.0775048,14.555257 17.843951,14.951013 17.6242425,15.3526273 C16.3472801,15.9115578 15.0790798,16.50083 13.8286236,17.1302065 C14.3153546,15.8202744 14.9210532,14.5467756 15.6428826,13.325647 C14.6911467,13.2172809 13.7308417,13.1790647 12.7682869,13.2097935 L12.2206321,13.2336939 C12.0928666,13.3363646 11.9665589,13.4404302 11.8417185,13.5458573 C11.6011839,13.7489965 11.3660175,13.957245 11.1363687,14.1703113 C10.9522418,14.3411414 10.7712395,14.5154879 10.5938363,14.6928217 C10.363209,14.9233343 10.1387847,15.1587832 9.92051284,15.3990022 C9.79983457,15.5318668 9.68111859,15.6660491 9.56429375,15.8016415 C9.41933719,15.9698236 9.27749491,16.1399855 9.13858029,16.3122245 L9.13379366,16.316994 L9.12679366,16.325994 L9.09084558,16.3717178 L9.09084558,16.3717178 L8.90055966,16.6130569 L8.90055966,16.6130569 L8.66844021,16.917954 L8.65379366,16.935994 L8.61842196,16.9853174 C8.60178429,17.007803 8.58518482,17.0303197 8.56863294,17.0528678 L8.60779366,16.998994 L8.43387033,17.2384915 C8.35674786,17.3460358 8.28069464,17.4542723 8.20571602,17.563182 L7.98400923,17.891912 L7.96779366,17.915994 L7.94047799,17.958209 L7.94047799,17.958209 L7.89709886,18.0247198 L7.89579366,18.025994 L7.80179366,18.171994 L7.84879366,18.097994 L7.80169697,18.1729392 L7.80169697,18.1729392 L7.73679366,18.273994 L7.70758306,18.3219167 L7.70758306,18.3219167 L7.73379366,18.278994 L7.68379366,18.358994 L7.64079366,18.427994 L7.63179366,18.442994 L7.57579366,18.534994 L7.56793545,18.5480877 L7.53879366,18.595994 L7.50779366,18.646994 L7.46512158,18.7189601 L7.46512158,18.7189601 L7.41879366,18.795994 L7.40479366,18.819994 L7.39679366,18.833994 L7.36397272,18.8907582 L7.36397272,18.8907582 L7.35879366,18.897994 L7.30679366,18.988994 L7.30379366,18.993994 L7.26683563,19.0593563 L7.26683563,19.0593563 L7.22279366,19.135994 L7.21379366,19.151994 L7.17279366,19.223994 L7.17129311,19.2288092 L7.16379366,19.240994 L7.15079366,19.264994 L7.14279366,19.278994 L7.08079366,19.391994 L7.07679366,19.399994 L7.06607914,19.4199964 L6.98651357,19.5676204 L6.98651357,19.5676204 L6.90814252,19.7158503 L6.73648288,20.0509487 L6.73648288,20.0509487 L6.57088931,20.3889616 L6.56979366,20.390994 L6.54679366,20.437994 L6.54479366,20.442994 L6.53079366,20.471994 L6.51779366,20.499994 L6.50279366,20.531994 L6.47179366,20.598994 L6.47279366,20.594994 L6.47168256,20.5990847 L6.46583031,20.6114014 L6.38856366,20.7796154 L6.38856366,20.7796154 L6.34179366,20.881994 L6.34879366,20.867994 L6.21393087,21.1752045 C6.1614574,21.297345 6.1101372,21.4199707 6.05997574,21.5430623 C6.0414198,21.5882807 6.0232639,21.6332761 6.00526267,21.6783326 L5.98810866,21.7217325 L5.98810866,21.7217325 L5.98479366,21.727994 L5.97479366,21.753994 L5.97079366,21.763994 L5.93723789,21.8507771 L5.93723789,21.8507771 L5.88179366,21.992994 L5.85719712,22.0598936 L5.85719712,22.0598936 L5.82379366,22.147994 L5.80691748,22.1929948 C4.30765127,23.4673187 3.0321844,24.8541478 1.99750113,26.3194362 C2.825978,20.2807515 5.92856216,14.6194071 10.89604,10.786701 L11.2134729,10.5420614 L11.2209981,10.5408136 L11.3391415,10.4532824 C12.977624,9.25084049 14.7663918,8.27016608 16.663843,7.53576497 C18.5395397,6.8097997 20.4773017,6.3400433 22.4243024,6.13758287 L22.5695161,6.12071116 C22.9489882,6.0814095 23.3277456,6.05182255 23.7055145,6.03177838 L24.0833201,6.01478112 C24.2053731,6.01033797 24.3273124,6.00688841 24.4491285,6.00442661 C24.5784481,6.00197317 24.7070887,6.00048916 24.8355816,6.00010233 C28.4731008,5.98883768 31.9915113,6.85664792 35.1424874,8.44725469 C33.9536802,8.95337063 32.7556349,9.43613169 31.5558681,9.90496941 C31.2164952,9.7829264 30.8729526,9.67183882 30.5262354,9.56998281 C30.1783498,9.46778351 29.827268,9.3748781 29.4733319,9.29148119 C29.3537719,9.26330964 29.2338862,9.2362231 29.1136879,9.21022983 C28.9952178,9.18461027 28.876444,9.16005279 28.7573791,9.13656529 C28.638619,9.11313792 28.5195694,9.09077507 28.4002428,9.0694846 L28.4007704,9.0686633 C28.0452594,9.00614785 27.6878243,8.95230163 27.3282667,8.90815288 C27.0738803,8.87691771 26.8184315,8.85053664 26.5620369,8.82908297 L26.4207937,8.81699403 L26.1989682,8.80204505 L26.1989682,8.80204505 L26.0577937,8.79299403 L25.9907937,8.78899403 L25.9757937,8.78799403 L25.9547937,8.78699403 L25.9697937,8.78799403 L25.9777937,8.78799403 L25.9907937,8.78899403 L26.0077937,8.78999403 L26.0305311,8.79176658 L26.0305311,8.79176658 L26.0497937,8.79199403 L26.0077937,8.78999403 L25.9777937,8.78799403 L25.9697937,8.78799403 L25.9237937,8.78499403 L25.8618469,8.78290859 L25.8618469,8.78290859 L25.8937937,8.78399403 L25.9237937,8.78499403 L25.9547937,8.78699403 L25.8937937,8.78399403 L25.8297937,8.78099403 L25.6743053,8.77474438 L25.6743053,8.77474438 L25.5487937,8.76999403 L25.7392196,8.77691778 C25.6274711,8.77224169 25.515569,8.76850359 25.4035228,8.76570941 L25.4864782,8.76834262 L25.3777937,8.76499403 L25.3517937,8.76399403 L25.3377937,8.76399403 L25.3068241,8.7638795 L25.3068241,8.7638795 L25.2407937,8.76199403 L25.1269273,8.7610353 L25.1269273,8.7610353 L25.2207937,8.76199403 L25.0952785,8.76041175 C24.9924143,8.75944085 24.8894365,8.75926646 24.7863522,8.75989316 L24.6135251,8.76185125 L24.4919453,8.7639809 L24.4919453,8.7639809 L24.4697937,8.76399403 L24.4587937,8.76399403 L24.4067937,8.76499403 L24.4327937,8.76399403 L24.3702733,8.76685441 L24.3702733,8.76685441 L24.4067937,8.76499403 L24.3507937,8.76699403 L24.2826873,8.76932402 L24.2826873,8.76932402 L24.3047937,8.76799403 L24.3507937,8.76699403 L24.3702733,8.76685441 L24.3047937,8.76799403 L24.1187937,8.77499403 L24.0596059,8.77757176 L24.0596059,8.77757176 L24.0557937,8.77699403 L24.032124,8.77874059 L24.032124,8.77874059 L23.8557937,8.78699403 Z" id="Combined-Shape"></path>
                </g>
            </g>
        </g>
    </g>
</svg>